HIERARCHY
ROOT Hips
{
	OFFSET	0.00	0.00	0.00
	CHANNELS 6 Xposition Yposition Zposition Zrotation Xrotation Yrotation
	JOINT LeftUpLeg
	{
		OFFSET	 0.126116	-0.014019	-0.065224
		CHANNELS 3 Zrotation Xrotation Yrotation
		JOINT LeftLeg
		{
			OFFSET	 0.000000	 0.000000	 0.569914
			CHANNELS 3 Zrotation Xrotation Yrotation
			JOINT LeftFoot
			{
				OFFSET	 0.000000	 0.000000	 0.544423
				CHANNELS 3 Zrotation Xrotation Yrotation
				JOINT LeftToeBase
				{
					OFFSET	 0.000000	 0.000000	 0.207117
					CHANNELS 3 Zrotation Xrotation Yrotation
					End Site
					{
						OFFSET	 0.000000	 0.000000	 0.207117
					}
				}
			}
		}
	}
	JOINT RightUpLeg
	{
		OFFSET	-0.124023	-0.008373	-0.065224
		CHANNELS 3 Zrotation Xrotation Yrotation
		JOINT RightLeg
		{
			OFFSET	 0.000000	 0.000000	 0.570047
			CHANNELS 3 Zrotation Xrotation Yrotation
			JOINT RightFoot
			{
				OFFSET	 0.000000	 0.000000	 0.544354
				CHANNELS 3 Zrotation Xrotation Yrotation
				JOINT RightToeBase
				{
					OFFSET	 0.000000	 0.000000	 0.207540
					CHANNELS 3 Zrotation Xrotation Yrotation
					End Site
					{
						OFFSET	 0.000000	 0.000000	 0.207540
					}
				}
			}
		}
	}
	JOINT Spine
	{
		OFFSET	 0.000184	-0.007763	 0.117403
		CHANNELS 3 Zrotation Xrotation Yrotation
		JOINT Spine1
		{
			OFFSET	 0.000000	 0.000000	 0.137269
			CHANNELS 3 Zrotation Xrotation Yrotation
			JOINT Spine2
			{
				OFFSET	 0.000000	 0.000000	 0.156879
				CHANNELS 3 Zrotation Xrotation Yrotation
				JOINT LeftShoulder
				{
					OFFSET	 0.080501	-0.002496	 0.160144
					CHANNELS 3 Zrotation Xrotation Yrotation
					JOINT LeftArm
					{
						OFFSET	 0.000000	 0.000000	 0.164363
						CHANNELS 3 Zrotation Xrotation Yrotation
						JOINT LeftForeArm
						{
							OFFSET	 0.000000	 0.000000	 0.364576
							CHANNELS 3 Zrotation Xrotation Yrotation
							JOINT LeftHand
							{
								OFFSET	 0.000000	 0.000000	 0.360812
								CHANNELS 3 Zrotation Xrotation Yrotation
								JOINT LeftHandIndex1
								{
									OFFSET	 0.000000	 0.000000	 0.086006
									CHANNELS 3 Zrotation Xrotation Yrotation
									JOINT LeftHandIndex2
									{
										OFFSET	 0.000000	 0.000000	 0.047237
										CHANNELS 3 Zrotation Xrotation Yrotation
										JOINT LeftHandIndex3
										{
											OFFSET	-0.004284	-0.000551	 0.038165
											CHANNELS 3 Zrotation Xrotation Yrotation
											End Site
											{
												OFFSET	-0.004284	-0.000551	 0.038165
											}
										}
									}
								}
							}
						}
					}
				}
				JOINT Neck
				{
					OFFSET	 0.000000	 0.000000	 0.176489
					CHANNELS 3 Zrotation Xrotation Yrotation
					JOINT Head
					{
						OFFSET	 0.000000	-0.001747	 0.077940
						CHANNELS 3 Zrotation Xrotation Yrotation
						End Site
						{
							OFFSET	 0.000000	-0.001747	 0.077940
						}
					}
				}
				JOINT RightShoulder
				{
					OFFSET	-0.080363	 0.000306	 0.159706
					CHANNELS 3 Zrotation Xrotation Yrotation
					JOINT RightArm
					{
						OFFSET	 0.000000	 0.000000	 0.164196
						CHANNELS 3 Zrotation Xrotation Yrotation
						JOINT RightForeArm
						{
							OFFSET	 0.000000	 0.000000	 0.365611
							CHANNELS 3 Zrotation Xrotation Yrotation
							JOINT RightHand
							{
								OFFSET	 0.000000	 0.000000	 0.360648
								CHANNELS 3 Zrotation Xrotation Yrotation
								JOINT RightHandIndex1
								{
									OFFSET	 0.000000	 0.000000	 0.069977
									CHANNELS 3 Zrotation Xrotation Yrotation
									JOINT RightHandIndex2
									{
										OFFSET	 0.000000	 0.000000	 0.052305
										CHANNELS 3 Zrotation Xrotation Yrotation
										JOINT RightHandIndex3
										{
											OFFSET	 0.009002	-0.000782	 0.042196
											CHANNELS 3 Zrotation Xrotation Yrotation
											End Site
											{
												OFFSET	 0.009002	-0.000782	 0.042196
											}
										}
									}
								}
							}
						}
					}
				}
			}
		}
	}
}
MOTION
Frames:    6
Frame Time: 0.03333334
-0.641403	-0.121842	 1.248894	-161.415300	 10.632760	 10.280110	 0.850943	-15.420760	 163.117800	-9.037918	-32.029480	-3.771813	-87.892780	 79.954550	 83.615200	-2.385833	 28.452760	 0.000004	 22.359160	-52.133990	-174.649400	-27.727850	-58.459300	-14.454050	 35.450190	 39.703220	-43.131130	 2.384659	 28.388700	-0.000001	 18.996710	-22.713600	-16.057220	 44.415130	 27.649260	 6.028358	 2.151400	-6.028543	-11.087420	-91.776250	 78.527430	-179.999900	 19.304340	 46.421490	-40.027290	-13.194480	 0.641720	-5.466182	 7.826105	-5.973075	-4.273190	-4.131196	 21.524690	 0.986298	-5.167839	 0.733520	 3.519257	-1.378229	 35.397820	-2.634230	-13.991890	 16.431010	-7.865304	-23.260650	 3.630668	 5.200614	 89.782140	 78.203850	 180.000000	 5.359830	 56.379890	 0.319085	 2.862068	 0.574968	 5.448962	 81.249560	-11.146310	 2.534461	 5.715225	 19.176060	-3.692089	 5.027514	 0.245388	-9.378011	-2.350882	 35.473990	 5.254307
-0.627060	-0.108213	 1.249031	-161.929700	 10.100320	 10.095880	 3.074966	-13.240120	 162.704100	-8.488054	-29.892710	-3.268040	-109.059100	 80.826900	 103.628100	-2.385833	 28.452760	 0.000004	 21.984700	-49.539260	-174.776600	-21.177970	-57.227220	-8.668850	 50.988750	 48.450080	-51.410240	 2.384659	 28.388700	-0.000001	 18.711770	-24.050510	-17.371440	 45.622390	 31.887400	 3.862343	 1.621365	-7.845014	-9.894305	-91.776280	 78.527420	-179.999900	 19.504810	 46.385900	-40.244690	-12.361190	 0.636462	-5.471028	 8.472857	-5.582556	-4.538282	-4.131196	 21.524690	 0.986298	-5.167839	 0.733520	 3.519257	-1.378229	 35.397820	-2.634230	-14.024810	 16.222850	-7.701912	-23.365400	 3.479863	 4.752993	 89.782180	 78.203870	 179.999900	 5.884645	 56.701800	 0.582535	 1.417644	 0.565106	 5.451659	 82.197070	-9.400075	 6.735020	 5.715225	 19.176060	-3.692089	 5.027514	 0.245388	-9.378011	-2.350882	 35.473990	 5.254307
-0.612202	-0.096215	 1.248620	-163.309100	 10.749790	 10.679450	 4.992577	-12.268900	 161.649800	-7.515038	-27.893300	-2.608896	-113.302100	 79.699610	 106.812200	-2.385833	 28.452760	 0.000004	 20.107690	-48.963990	-176.212100	-18.480090	-55.539960	-6.261350	 53.344050	 51.516570	-51.214350	 2.384659	 28.388700	-0.000001	 20.368380	-23.719030	-17.298070	 45.338570	 30.825240	 5.141634	 1.529665	-7.015912	-10.228510	-91.776200	 78.527400	-180.000000	 19.173420	 46.384370	-40.245980	-11.695970	 0.632321	-5.475934	 8.897146	-5.328574	-4.732640	-4.131196	 21.524690	 0.986298	-5.167839	 0.733520	 3.519257	-1.378229	 35.397820	-2.634230	-14.006110	 16.573810	-7.702058	-23.354780	 3.211621	 4.589249	 89.782070	 78.203870	-180.000000	 6.255938	 57.112270	 1.127245	 0.191000	 0.556487	 5.456023	 80.989440	-11.455640	 7.811789	 5.715225	 19.176060	-3.692089	 5.027514	 0.245388	-9.378011	-2.350882	 35.473990	 5.254307
-0.591552	-0.077254	 1.248487	-163.988300	 11.582770	 10.036210	 6.951522	-9.545804	 161.736000	-5.796803	-23.381790	-1.527704	-137.105200	 79.342370	 128.361300	-2.385833	 28.452760	 0.000004	 22.790960	-46.946710	-174.697300	-17.249700	-53.713520	-5.125391	 62.280960	 54.349320	-57.028260	 2.384659	 28.388700	-0.000001	 21.562260	-24.488570	-15.893890	 45.631570	 31.581660	 4.537339	 1.350626	-7.039755	-10.399450	-91.776210	 78.527380	-180.000000	 19.133480	 46.514520	-40.692680	-11.095870	 0.629635	-5.480603	 9.342606	-5.020752	-4.952171	-4.131196	 21.524690	 0.986298	-5.167839	 0.733520	 3.519257	-1.378229	 35.397820	-2.634230	-13.813460	 17.068260	-7.873418	-23.314790	 3.203525	 5.254747	 89.782200	 78.203920	 179.999900	 5.938567	 57.224400	 2.929724	-0.999929	 0.548447	 5.463813	 80.049460	-12.865370	 9.672917	 5.715225	 19.176060	-3.692089	 5.027514	 0.245388	-9.378011	-2.350882	 35.473990	 5.254307
-0.570951	-0.056165	 1.248567	-163.216000	 11.835290	 7.690355	 8.638349	-5.002881	 163.547400	-4.383397	-16.856480	-0.705379	-169.885800	 77.998700	 159.688400	-2.385833	 28.452760	 0.000004	 28.374780	-43.154340	-171.057700	-17.001550	-52.422650	-4.842213	 76.878770	 55.198180	-68.231140	 2.384659	 28.388700	-0.000001	 21.727910	-25.595670	-13.091940	 46.254820	 33.868920	 1.575018	 1.179223	-8.126847	-9.830141	-91.776150	 78.527400	 180.000000	 19.375910	 46.873490	-41.199220	-10.695880	 0.628778	-5.486037	 9.719231	-4.731778	-5.147873	-4.131196	 21.524690	 0.986298	-5.167839	 0.733520	 3.519257	-1.378229	 35.397820	-2.634230	-13.415460	 17.179340	-8.203083	-23.323410	 3.669391	 6.741598	 89.782120	 78.203920	 180.000000	 5.195881	 56.929370	 5.330235	-1.517439	 0.546544	 5.471300	 79.962070	-13.591480	 12.634440	 5.715225	 19.176060	-3.692089	 5.027514	 0.245388	-9.378011	-2.350882	 35.473990	 5.254307
-0.546961	-0.035092	 1.247345	-163.511600	 10.921430	 6.987629	 8.323527	 1.652376	 163.987500	-3.104536	-9.961343	-0.199389	-159.375000	 79.669790	 147.660700	-2.385833	 28.452760	 0.000004	 27.287290	-40.307280	-172.788500	-16.213080	-50.626690	-4.111648	 74.168890	 58.988570	-63.625430	 2.384659	 28.388700	-0.000001	 23.155300	-22.395320	-11.244890	 44.365740	 30.389120	 1.806992	 1.517529	-6.444387	-8.769989	-91.776160	 78.527380	 180.000000	 19.516300	 47.139420	-41.341800	-10.427710	 0.629189	-5.495131	 10.013600	-4.470120	-5.323229	-4.131196	 21.524690	 0.986298	-5.167839	 0.733520	 3.519257	-1.378229	 35.397820	-2.634230	-12.952820	 17.048230	-8.974714	-23.465450	 4.127437	 8.303787	 89.782070	 78.203890	-180.000000	 3.779256	 56.653710	 8.516367	-1.066711	 0.552866	 5.481713	 77.957070	-21.016450	 13.297340	 5.715225	 19.176060	-3.692089	 5.027514	 0.245388	-9.378011	-2.350882	 35.473990	 5.254307
